<svg xmlns="http://www.w3.org/2000/svg" version="1.1" xmlns:xlink="http://www.w3.org/1999/xlink" xmlns:svgjs="http://svgjs.dev/svgjs" width="2000" height="1523" viewBox="0 0 2000 1523"><g transform="matrix(1,0,0,1,-1.2588087774295218,-1.1614492012345181)"><svg viewBox="0 0 319 243" data-background-color="#dedede" preserveAspectRatio="xMidYMid meet" height="1523" width="2000" xmlns="http://www.w3.org/2000/svg" xmlns:xlink="http://www.w3.org/1999/xlink"><g id="tight-bounds" transform="matrix(1,0,0,1,0.20078000000000884,0.18531329999999002)"><svg viewBox="0 0 318.59844 242.62937340000002" height="242.62937340000002" width="318.59844"><g><svg></svg></g><g><svg viewBox="0 0 318.59844 242.62937340000002" height="242.62937340000002" width="318.59844"><g transform="matrix(1,0,0,1,-38.46078,-4.570629999999994)"><path d="M38.461 242.629v-238.058h318.598v238.058h-30.713l0-7.359h23.354v-223.34h-303.88v223.34l23.354 0v7.359z" fill="#ffffff" fill-rule="nonzero" stroke="none" stroke-width="1" stroke-linecap="butt" stroke-linejoin="miter" stroke-miterlimit="10" stroke-dasharray="" stroke-dashoffset="0" font-family="none" font-weight="none" font-size="none" text-anchor="none" style="mix-blend-mode: normal" data-fill-palette-color="tertiary"></path><g><path transform="translate(91.23889,246.92801) scale(0.59129,0.59129)" d="M29.39-33.91v0c0 0.747-0.787 1.12-2.36 1.12v0h-5.67v32.79h-12.5v-32.79h-3.66c-1.253 0-2.117 0.057-2.59 0.17v0c-0.62 0.133-1.067 0.2-1.34 0.2v0c-0.833 0-1.25-0.327-1.25-0.98v0c0-0.767 0.807-1.15 2.42-1.15v0h21.78c1.12 0 1.95-0.047 2.49-0.14v0c0.653-0.113 1.14-0.17 1.46-0.17v0c0.813 0 1.22 0.317 1.22 0.95zM50.81 0v-1.61c-2.087 1.38-4.4 2.07-6.94 2.07v0c-3.367 0-6.067-0.847-8.1-2.54v0c-2.12-1.74-3.18-4.157-3.18-7.25v0c0-2.733 1.05-4.977 3.15-6.73v0c2.147-1.78 4.97-2.67 8.47-2.67v0c2.347 0 4.547 0.45 6.6 1.35v0-6.72c-1.487-0.42-2.793-0.63-3.92-0.63-1.133 0-2.09 0.05-2.87 0.15-0.78 0.093-1.52 0.237-2.22 0.43v0c-1.513 0.427-2.663 0.997-3.45 1.71v0c-0.453 0.427-0.867 0.64-1.24 0.64-0.373 0-0.66-0.093-0.86-0.28-0.193-0.187-0.29-0.397-0.29-0.63 0-0.227 0.04-0.433 0.12-0.62 0.087-0.187 0.243-0.377 0.47-0.57v0c0.487-0.427 1.3-0.85 2.44-1.27v0c2.36-0.893 4.727-1.34 7.1-1.34v0c7.227 0 11.843 1.723 13.85 5.17v0c0.873 1.533 1.31 3.543 1.31 6.03v0 15.31zM50.81-3.71v-11.77c-2.053-0.993-4.097-1.49-6.13-1.49v0c-0.327 0-0.637 0.027-0.93 0.08v0 15.52c0.08 0.02 0.17 0.03 0.27 0.03 0.1 0 0.197 0 0.29 0v0c2.233 0 4.4-0.79 6.5-2.37zM78.93 0.46v0c-6.38 0-9.57-2.913-9.57-8.74v0l-0.02-16.01-2.81 0.12c-0.88 0-1.32-0.333-1.32-1 0-0.667 0.473-1 1.42-1v0l2.34 0.1h0.37v-3.79l10.47-4.69v8.48h3.27l2.32-0.1c0.96 0 1.44 0.34 1.44 1.02v0c0 0.313-0.133 0.553-0.4 0.72-0.267 0.173-0.573 0.26-0.92 0.26v0l-3.02-0.12h-2.69v22.95c1.907-0.033 3.493-0.58 4.76-1.64v0c0.6-0.453 1.027-1.04 1.28-1.76 0.253-0.713 0.483-1.173 0.69-1.38 0.2-0.2 0.44-0.3 0.72-0.3v0c0.273 0 0.507 0.11 0.7 0.33 0.2 0.22 0.3 0.48 0.3 0.78 0 0.3-0.083 0.633-0.25 1-0.16 0.367-0.403 0.753-0.73 1.16v0c-0.733 0.913-1.58 1.637-2.54 2.17v0c-1.74 0.96-3.677 1.44-5.81 1.44zM102.44 0.46v0c-6.38 0-9.57-2.913-9.57-8.74v0l-0.02-16.01-2.81 0.12c-0.88 0-1.32-0.333-1.32-1 0-0.667 0.473-1 1.42-1v0l2.34 0.1h0.37v-3.79l10.47-4.69v8.48h3.27l2.32-0.1c0.96 0 1.44 0.34 1.44 1.02v0c0 0.313-0.133 0.553-0.4 0.72-0.267 0.173-0.573 0.26-0.92 0.26v0l-3.02-0.12h-2.69v22.95c1.907-0.033 3.493-0.58 4.76-1.64v0c0.6-0.453 1.027-1.04 1.28-1.76 0.253-0.713 0.483-1.173 0.69-1.38 0.2-0.2 0.44-0.3 0.72-0.3v0c0.273 0 0.507 0.11 0.7 0.33 0.2 0.22 0.3 0.48 0.3 0.78 0 0.3-0.083 0.633-0.25 1-0.16 0.367-0.403 0.753-0.73 1.16v0c-0.733 0.913-1.58 1.637-2.54 2.17v0c-1.74 0.96-3.677 1.44-5.81 1.44zM113.67-13.18v0c0-1.953 0.353-3.733 1.06-5.34 0.713-1.6 1.687-2.997 2.92-4.19v0c2.673-2.533 6.027-3.8 10.06-3.8v0c4.12 0 7.473 1.317 10.06 3.95v0c2.473 2.493 3.71 5.643 3.71 9.45v0c0 3.827-1.27 7.023-3.81 9.59v0c-2.62 2.653-5.973 3.98-10.06 3.98v0c-3.987 0-7.29-1.26-9.91-3.78v0c-2.687-2.607-4.03-5.893-4.03-9.86zM126.93-24.71v23.34c0.127 0.02 0.257 0.03 0.39 0.03v0h0.34c3.287 0 6.047-1.017 8.28-3.05v0c2.373-2.2 3.56-5.083 3.56-8.65v0c0-3.48-1.113-6.303-3.34-8.47v0c-2.2-2.147-5.04-3.22-8.52-3.22v0h-0.37c-0.113 0-0.227 0.007-0.34 0.02zM145.48-13.18v0c0-1.953 0.357-3.733 1.07-5.34 0.707-1.6 1.677-2.997 2.91-4.19v0c2.673-2.533 6.027-3.8 10.06-3.8v0c4.12 0 7.473 1.317 10.06 3.95v0c2.473 2.493 3.71 5.643 3.71 9.45v0c0 3.827-1.27 7.023-3.81 9.59v0c-2.62 2.653-5.973 3.98-10.06 3.98v0c-3.987 0-7.29-1.26-9.91-3.78v0c-2.687-2.607-4.03-5.893-4.03-9.86zM158.74-24.71v23.34c0.133 0.02 0.263 0.03 0.39 0.03v0h0.34c3.287 0 6.047-1.017 8.28-3.05v0c2.373-2.2 3.56-5.083 3.56-8.65v0c0-3.48-1.113-6.303-3.34-8.47v0c-2.2-2.147-5.04-3.22-8.52-3.22v0h-0.37c-0.113 0-0.227 0.007-0.34 0.02zM190.77-1.76v0c-0.567-0.327-1.06-0.667-1.48-1.02-0.413-0.36-0.62-0.743-0.62-1.15v0c0-0.78 0.333-1.17 1-1.17v0c0.44 0 0.93 0.243 1.47 0.73 0.533 0.487 1.133 0.913 1.8 1.28 0.673 0.367 1.4 0.68 2.18 0.94v0c1.607 0.54 3.093 0.81 4.46 0.81 1.373 0 2.43-0.09 3.17-0.27 0.74-0.18 1.36-0.423 1.86-0.73v0c1.08-0.667 1.62-1.523 1.62-2.57v0c0-0.96-0.467-1.927-1.4-2.9v0c-0.78-0.833-1.887-1.827-3.32-2.98v0l-4.17-3.27c-4.187-3.227-6.653-6.173-7.4-8.84v0c-0.26-0.927-0.39-1.96-0.39-3.1 0-1.14 0.257-2.263 0.77-3.37 0.513-1.107 1.273-2.077 2.28-2.91v0c2.167-1.807 5.113-2.71 8.84-2.71v0c1.907 0 3.617 0.283 5.13 0.85 1.513 0.56 2.547 1.06 3.1 1.5 0.553 0.44 0.83 0.837 0.83 1.19v0c0 0.753-0.31 1.13-0.93 1.13v0c-0.36 0-0.743-0.18-1.15-0.54-0.407-0.36-0.857-0.673-1.35-0.94-0.5-0.267-1.067-0.507-1.7-0.72v0c-1.367-0.453-2.71-0.68-4.03-0.68v0c-2.42 0-3.63 0.797-3.63 2.39v0c0 0.667 0.217 1.283 0.65 1.85v0c0.787 0.993 2.313 2.417 4.58 4.27 2.273 1.847 4.097 3.46 5.47 4.84 1.373 1.387 2.42 2.633 3.14 3.74v0c1.14 1.74 1.71 3.55 1.71 5.43 0 1.88-0.33 3.473-0.99 4.78-0.66 1.313-1.583 2.443-2.77 3.39v0c-2.507 1.98-5.617 2.97-9.33 2.97-3.713 0-6.847-0.74-9.4-2.22zM229.76 0.46v0c-6.38 0-9.57-2.913-9.57-8.74v0l-0.02-16.01-2.81 0.12c-0.88 0-1.32-0.333-1.32-1 0-0.667 0.473-1 1.42-1v0l2.34 0.1h0.37v-3.79l10.47-4.69v8.48h3.27l2.32-0.1c0.96 0 1.44 0.34 1.44 1.02v0c0 0.313-0.133 0.553-0.4 0.72-0.267 0.173-0.573 0.26-0.92 0.26v0l-3.02-0.12h-2.69v22.95c1.907-0.033 3.493-0.58 4.76-1.64v0c0.6-0.453 1.027-1.04 1.28-1.76 0.253-0.713 0.483-1.173 0.69-1.38 0.2-0.2 0.44-0.3 0.72-0.3v0c0.273 0 0.507 0.11 0.7 0.33 0.2 0.22 0.3 0.48 0.3 0.78 0 0.3-0.083 0.633-0.25 1-0.16 0.367-0.403 0.753-0.73 1.16v0c-0.733 0.913-1.58 1.637-2.54 2.17v0c-1.74 0.96-3.677 1.44-5.81 1.44zM251.78 0.46v0c-5.713 0-8.57-2.79-8.57-8.37v0-18.16h10.45v23.9c0.167 0.08 0.37 0.12 0.61 0.12v0h0.81c1.3 0 2.847-0.88 4.64-2.64v0c0.533-0.533 1.037-1.12 1.51-1.76v0-19.62h10.5v26.07h-10.5v-3.76c-2.653 2.813-5.803 4.22-9.45 4.22zM298.19 0v-1.34c-2.033 1.2-4.183 1.8-6.45 1.8-2.273 0-4.27-0.337-5.99-1.01-1.713-0.673-3.18-1.613-4.4-2.82v0c-2.54-2.52-3.81-5.8-3.81-9.84v0c0-3.74 1.253-6.857 3.76-9.35v0c2.667-2.633 6.15-3.95 10.45-3.95v0c2.28 0 4.427 0.497 6.44 1.49v0-9.53h10.06v34.55zM291.26-24.73v0c-0.507 0-0.987 0.033-1.44 0.1v0 23.14c0.587 0.1 1.22 0.15 1.9 0.15v0c2.267 0 4.423-0.717 6.47-2.15v0-19.36c-2.193-1.253-4.503-1.88-6.93-1.88zM321.36-30.35c-1.673 0-2.983-0.373-3.93-1.12-0.94-0.747-1.41-1.73-1.41-2.95v0c0-1.027 0.52-1.907 1.56-2.64v0c1.107-0.78 2.277-1.17 3.51-1.17 1.24 0 2.197 0.12 2.87 0.36 0.68 0.247 1.253 0.567 1.72 0.96v0c0.947 0.793 1.42 1.72 1.42 2.78v0c0 1.06-0.537 1.953-1.61 2.68v0c-1.073 0.733-2.45 1.1-4.13 1.1zM316.24 0v-26.07h10.49v26.07zM332.47-13.18v0c0-1.953 0.353-3.733 1.06-5.34 0.707-1.6 1.68-2.997 2.92-4.19v0c2.667-2.533 6.02-3.8 10.06-3.8v0c4.12 0 7.473 1.317 10.06 3.95v0c2.473 2.493 3.71 5.643 3.71 9.45v0c0 3.827-1.27 7.023-3.81 9.59v0c-2.62 2.653-5.973 3.98-10.06 3.98v0c-3.987 0-7.29-1.26-9.91-3.78v0c-2.687-2.607-4.03-5.893-4.03-9.86zM345.73-24.71v23.34c0.127 0.02 0.257 0.03 0.39 0.03v0h0.34c3.287 0 6.047-1.017 8.28-3.05v0c2.373-2.2 3.56-5.083 3.56-8.65v0c0-3.48-1.113-6.303-3.34-8.47v0c-2.2-2.147-5.04-3.22-8.52-3.22v0h-0.37c-0.113 0-0.227 0.007-0.34 0.02z" fill="#ffffff" fill-rule="nonzero" stroke="none" stroke-width="1" stroke-linecap="butt" stroke-linejoin="miter" stroke-miterlimit="10" stroke-dasharray="" stroke-dashoffset="0" font-family="none" font-weight="none" font-size="none" text-anchor="none" style="mix-blend-mode: normal" data-fill-palette-color="secondary" id="text-1"></path></g></g><g transform="matrix(1,0,0,1,24.91486141916701,34.794686700000014)"><svg viewBox="0 0 268.76871716166596 173.04" height="173.04" width="268.76871716166596"><g><svg viewBox="0 0 316.416 203.7165084471716" height="173.04" width="268.76871716166596"><g transform="matrix(1,0,0,1,0,107.64901084410354)"><svg viewBox="0 0 316.416 96.06749760306806" height="96.06749760306806" width="316.416"><g id="textblocktransform"><svg viewBox="0 0 316.416 96.06749760306806" height="96.06749760306806" width="316.416" id="textblock"><g><svg viewBox="0 0 316.416 96.06749760306806" height="96.06749760306806" width="316.416"><g transform="matrix(1,0,0,1,0,0)"><svg width="316.416" viewBox="-0.5 -35.1 156.44 47.5" height="96.06749760306806" data-palette-color="#000000"><path d="M0.15-34.95L9.2-35Q9.2-34.95 9.25-34.25L9.25-34.25 7.3-34 7.3 0Q7.45 6 0.1 12.4L0.1 12.4-0.5 11.95Q3.95 5.9 3.9 0L3.9 0 3.9-33.4Q3.8-33.85 3.3-33.95L3.3-33.95 0.2-34.2 0.15-34.95ZM21.55 0L11.5 0.05 11.55-0.65 14.15-1Q14.5-1.05 14.75-1.65L14.75-1.65 25.55-35 28.85-35 40.35-0.95 43.8-0.75Q43.8-0.7 43.75 0L43.75 0 33.75 0.05Q33.75-0.4 33.8-0.65L33.8-0.65 36.4-1Q36.8-1.05 36.8-1.6L36.8-1.6 34.05-9.75 18.45-9.75 15.8-1.05 21.6-0.75Q21.6-0.7 21.55 0L21.55 0ZM33.7-10.75L25.9-34.05 18.75-10.75 33.7-10.75ZM48.15-33.95L45.5-34.25 45.55-35 52.4-35 71.84-1.4 71.59-33.25Q71.4-33.75 71.05-33.8L71.05-33.8 66.45-34.2Q66.4-34.5 66.4-34.95L66.4-34.95 75.9-35Q75.9-34.95 75.95-34.25L75.95-34.25 72.75-33.9 72.75 0 69.09 0 49.65-33.6 49.9-1.05 55.6-0.75Q55.6-0.7 55.55 0L55.55 0 45.5 0.05 45.55-0.65 48.15-1Q48.65-1.05 48.75-1.65L48.75-1.65 48.75-33.3Q48.65-33.9 48.15-33.95L48.15-33.95ZM82.19-33.95L79.54-34.25 79.59-35 100.99-35 100.94-34.85 101.59-27.8 100.59-27.4 99.79-34 86.19-34 86.19-17.85 98.14-17.85Q98.39-17.8 98.59-17.98 98.79-18.15 98.79-18.45L98.79-18.45 98.99-21.9 99.79-22 99.79-13.45Q99.74-13.45 99.04-13.4L99.04-13.4 98.84-16.85 86.19-16.85 86.19-1 101.14-1 102.09-9 103.04-8.75 102.29 0 89.59 0 79.54 0.05 79.59-0.65 82.19-1Q82.69-1.05 82.79-1.65L82.79-1.65 82.79-33.3Q82.69-33.9 82.19-33.95L82.19-33.95ZM116.19-0.95L116.19-0.95Q119.89-0.95 122.69-3.13 125.49-5.3 125.49-9.75L125.49-9.75Q125.49-11.75 124.52-13.18 123.54-14.6 121.94-15.38 120.34-16.15 118.44-16.73 116.54-17.3 114.64-17.95 112.74-18.6 111.14-19.5 109.54-20.4 108.57-22.05 107.59-23.7 107.59-26L107.59-26Q107.59-30 110.34-32.55 113.09-35.1 117.69-35.1 122.29-35.1 126.49-34.05L126.49-34.05 127.04-27.8 126.09-27.4 125.59-31.35Q121.89-34.1 118.64-34.1 115.39-34.1 113.19-32.13 110.99-30.15 110.99-26.2L110.99-26.2Q110.99-23.9 112.84-22.55 114.69-21.2 117.32-20.45 119.94-19.7 122.57-18.75 125.19-17.8 127.04-15.55 128.89-13.3 128.89-9.7L128.89-9.7Q128.89-4.85 125.44-2.4 121.99 0.05 116.34 0.05 110.69 0.05 106.54-3L106.54-3 106.59-8.3 107.54-8.55 107.64-5.7Q108.99-3.8 111.34-2.38 113.69-0.95 116.19-0.95ZM135.09-33.95L132.44-34.25 132.49-35 153.89-35 153.84-34.85 154.49-27.8 153.49-27.4 152.69-34 139.09-34 139.09-17.85 151.04-17.85Q151.29-17.8 151.49-17.98 151.69-18.15 151.69-18.45L151.69-18.45 151.89-21.9 152.69-22 152.69-13.45Q152.64-13.45 151.94-13.4L151.94-13.4 151.74-16.85 139.09-16.85 139.09-1 154.04-1 154.99-9 155.94-8.75 155.19 0 142.49 0 132.44 0.05 132.49-0.65 135.09-1Q135.59-1.05 135.69-1.65L135.69-1.65 135.69-33.3Q135.59-33.9 135.09-33.95L135.09-33.95Z" opacity="1" transform="matrix(1,0,0,1,0,0)" fill="#ffffff" class="wordmark-text-0" data-fill-palette-color="primary" id="text-0"></path></svg></g></svg></g></svg></g></svg></g><g transform="matrix(1,0,0,1,116.78889017922,0)"><svg viewBox="0 0 82.83821964155999 84.96978027996164" height="84.96978027996164" width="82.83821964155999"><g><svg xmlns="http://www.w3.org/2000/svg" xmlns:xlink="http://www.w3.org/1999/xlink" version="1.1" x="0" y="0" viewBox="7.066804397234901 2.871472420869481 88.63319560276508 90.91387029398966" enable-background="new 0 0 100 100" xml:space="preserve" height="84.96978027996164" width="82.83821964155999" class="icon-icon-0" data-fill-palette-color="accent" id="icon-0"><g fill="#000000" data-fill-palette-color="accent"><g fill="#000000" data-fill-palette-color="accent"><path fill-rule="evenodd" clip-rule="evenodd" d="M32.7 75.7l-5.4-0.3 0.3-6.4c-6.4-3.3-12.7 2.5-9.7 9.9-8.8-3.5-14.8 5.4-7.7 12.6 3.9 3.9 8.9 1.8 12.9 1 3.8-0.8 7.6-0.4 8.7 0.3-0.6-1.1-0.9-5.1-0.3-8.7C31.9 81.4 32.9 78.5 32.7 75.7z" fill="#ffffff" data-fill-palette-color="accent"></path></g></g><g fill="#000000" data-fill-palette-color="accent"><path fill-rule="evenodd" clip-rule="evenodd" d="M87.2 11.5c-3.1-2.9-3.8-9.1-4.2-8.6s-6.9 7.5-6.7 8.2c0.1 0.7 1.8 5.7-2 9.2-3.8 3.5-8.5 2.4-9.1 3C64.6 23.9 53.4 35.4 53 37c-0.6 2.2-5.6 11.8-6.5 12.7C45.6 50.5 36 62 35 62.8l0.3 0.3-3.1 3.2 0.4 0.4 3.1-3.2 0.4 0.4-4.1 4.2 0.4 0.4 4.1-4.2 0.4 0.4-5 5.3 0.4 0.4 5-5.3 0.5 0.5-5.8 6 0.4 0.4 5.8-6 0.2 0.2 13.3-12.3 12.4-7 23.8-23.7 7.8-7.9C95.6 15.2 90.3 14.4 87.2 11.5z" fill="#ffffff" data-fill-palette-color="accent"></path></g><g fill="#000000" data-fill-palette-color="accent"><polygon fill-rule="evenodd" clip-rule="evenodd" points="39.5,73.7 29.7,73.2 30.2,63.4 16.7,48.5 15.9,49.2 29,64 28.5,74.2    39,74.8 50.7,89.3 51.6,88.7  " fill="#ffffff" data-fill-palette-color="accent"></polygon></g><g fill="#000000" data-fill-palette-color="accent"><path d="M53.7 64.5c-1.5-5.9-12.2 3.1-12.5 3.2C41.2 67.7 55.2 70.4 53.7 64.5zM51 67.1c0 0.7-1.2 0.7-1.2 0v0C49.9 66.3 51 66.3 51 67.1L51 67.1zM53.1 66.4C53.1 66.4 53.1 66.4 53.1 66.4c-0.8 0.8-2.1-0.4-1.3-1.2 0 0 0 0 0 0C52.7 64.4 53.9 65.6 53.1 66.4z" fill="#ffffff" data-fill-palette-color="accent"></path><path d="M31.9 51.6c-3.6-0.6-1.3 7.4-1.3 7.5C30.6 59.1 35.5 52.2 31.9 51.6zM32 55.2L32 55.2c-0.4 0-0.4-0.6 0-0.6h0C32.3 54.6 32.3 55.2 32 55.2zM31.4 53.8C31.4 53.8 31.4 53.7 31.4 53.8c-0.8-0.8 0.4-2.1 1.2-1.3 0 0 0 0 0 0C33.4 53.3 32.2 54.6 31.4 53.8z" fill="#ffffff" data-fill-palette-color="accent"></path><path d="M42 71.5c0 0 5.2 9.6 7.9 5.8C52.6 73.6 42.2 71.6 42 71.5zM46.3 76.4L46.3 76.4c-0.8 0-0.8-1.2 0-1.2h0C47 75.3 47 76.4 46.3 76.4zM47.6 77.5C47.6 77.5 47.5 77.5 47.6 77.5c-1.1-0.6-0.2-2 0.8-1.5 0 0 0.1 0 0.1 0C49.4 76.6 48.6 78 47.6 77.5zM49.9 75.7C49.8 75.7 49.8 75.7 49.9 75.7c-0.3 0.3-0.7-0.1-0.5-0.4 0 0 0 0 0 0C49.7 75 50.1 75.4 49.9 75.7z" fill="#ffffff" data-fill-palette-color="accent"></path></g></svg></g></svg></g><g></g></svg></g></svg></g></svg></g><defs></defs></svg><rect width="318.59844" height="242.62937340000002" fill="none" stroke="none" visibility="hidden"></rect></g></svg></g></svg>